<?xml version="1.0" encoding="UTF-8" standalone="no"?>
<!DOCTYPE svg PUBLIC "-//W3C//DTD SVG 1.1//EN" "http://www.w3.org/Graphics/SVG/1.1/DTD/svg11.dtd">
<!-- Created with Vectornator (http://vectornator.io/) -->
<svg height="100%" stroke-miterlimit="10" style="fill-rule:nonzero;clip-rule:evenodd;stroke-linecap:round;stroke-linejoin:round;" version="1.1" viewBox="0 0 1024 1024" width="100%" xml:space="preserve" xmlns="http://www.w3.org/2000/svg" xmlns:vectornator="http://vectornator.io" xmlns:xlink="http://www.w3.org/1999/xlink">
<defs/>
<g id="Layer-1" vectornator:layerName="Layer 1">
<path d="M308.351 385.633C303.627 359.94 301.083 333.612 301.083 307.306C301.083 141.227 402.483 5.92291 512.792 5.92291C623.101 5.92291 725.174 140.758 725.174 306.836C725.174 333.292 722.582 359.782 717.779 385.633L812.644 385.633L971.703 1019L54.5522 1019L213.307 385.633L308.353 385.633L308.351 385.633ZM677.415 385.633L348.168 385.633C346.316 370.627 345.35 355.173 345.35 339.38C345.35 200.246 420.378 87.2854 512.792 87.2854C605.206 87.2854 680.233 200.246 680.233 339.38C680.233 355.173 679.267 370.627 677.415 385.633Z" fill="#fffff3" fill-opacity="0.993097" fill-rule="evenodd" opacity="1" stroke="none"/>
</g>
</svg>
