  <svg 
    xmlns="http://www.w3.org/2000/svg"
    width="20" 
    height="20" 
    viewBox="0 0 20 20" 
    fill="none"
    >
    <path 
      d="M9 3.5C7.54131 3.5 6.14236 4.07946 5.11091 5.11091C4.07946 6.14236 3.5 7.54131 3.5 9C3.5 10.4587 4.07946 11.8576 5.11091 12.8891C6.14236 13.9205 7.54131 14.5 9 14.5C10.4587 14.5 11.8576 13.9205 12.8891 12.8891C13.9205 11.8576 14.5 10.4587 14.5 9C14.5 7.54131 13.9205 6.14236 12.8891 5.11091C11.8576 4.07946 10.4587 3.5 9 3.5ZM2 9C2.00009 7.88067 2.26861 6.77768 2.78303 5.78356C3.29745 4.78944 4.04276 3.93318 4.95645 3.28659C5.87015 2.64001 6.92557 2.22197 8.0342 2.06754C9.14282 1.9131 10.2723 2.02677 11.3279 2.39902C12.3836 2.77127 13.3345 3.39123 14.101 4.20691C14.8676 5.02259 15.4273 6.0102 15.7333 7.08689C16.0393 8.16358 16.0827 9.29795 15.8597 10.3949C15.6368 11.4918 15.154 12.5192 14.452 13.391L17.78 16.72C17.8537 16.7887 17.9128 16.8715 17.9538 16.9635C17.9948 17.0555 18.0168 17.1548 18.0186 17.2555C18.0204 17.3562 18.0018 17.4562 17.9641 17.5496C17.9264 17.643 17.8703 17.7278 17.799 17.799C17.7278 17.8703 17.643 17.9264 17.5496 17.9641C17.4562 18.0018 17.3562 18.0204 17.2555 18.0186C17.1548 18.0168 17.0555 17.9948 16.9635 17.9538C16.8715 17.9128 16.7887 17.8537 16.72 17.78L13.391 14.452C12.3625 15.2804 11.1207 15.8009 9.80901 15.9536C8.49727 16.1062 7.16912 15.8846 5.97795 15.3145C4.78677 14.7444 3.78117 13.849 3.07727 12.7316C2.37338 11.6143 1.99991 10.3206 2 9Z" 
      fill-rule="evenodd" 
      clip-rule="evenodd" 
      fill="#9BA1A6"
    />
  </svg>