  <svg 
    width="25" 
    height="25" 
    viewBox="0 0 20 20" 
    fill="none" 
    xmlns="http://www.w3.org/2000/svg"
  >
    <path 
      d="M6.13375 16H3.23125V6.65312H6.13375V16ZM4.68094 5.37812C3.75281 5.37812 3 4.60937 3 3.68124C3 3.23543 3.1771 2.80788 3.49234 2.49264C3.80757 2.1774 4.23513 2.00031 4.68094 2.00031C5.12675 2.00031 5.5543 2.1774 5.86954 2.49264C6.18478 2.80788 6.36188 3.23543 6.36188 3.68124C6.36188 4.60937 5.60875 5.37812 4.68094 5.37812ZM16.9969 16H14.1006V11.45C14.1006 10.3656 14.0787 8.97499 12.5916 8.97499C11.0825 8.97499 10.8513 10.1531 10.8513 11.3719V16H7.95188V6.65312H10.7356V7.92812H10.7762C11.1637 7.19374 12.1103 6.41874 13.5225 6.41874C16.46 6.41874 17 8.35312 17 10.8656V16H16.9969Z" 
      fill="#ECEDEE"
    />
  </svg>