  <svg
    xmlns="http://www.w3.org/2000/svg"
    width="25" 
    height="25" 
    viewBox="0 0 20 20" 
    fill="none" 
  >
    <path 
      d="M16.3553 6.74113C16.3655 6.88325 16.3655 7.02541 16.3655 7.16753C16.3655 11.5025 13.066 16.4975 7.03553 16.4975C5.17766 16.4975 3.45178 15.9594 2 15.0254C2.26397 15.0558 2.51775 15.066 2.79188 15.066C4.32484 15.066 5.73603 14.5483 6.86294 13.665C5.42131 13.6345 4.21319 12.6904 3.79694 11.3909C4 11.4213 4.20303 11.4416 4.41625 11.4416C4.71066 11.4416 5.00509 11.401 5.27919 11.33C3.77666 11.0254 2.64972 9.7056 2.64972 8.11169V8.07109C3.08625 8.31475 3.59391 8.46703 4.13194 8.48731C3.24869 7.89847 2.67003 6.89341 2.67003 5.75634C2.67003 5.14722 2.83244 4.58884 3.11672 4.10153C4.73094 6.09138 7.15734 7.39084 9.87813 7.533C9.82738 7.28934 9.79691 7.03556 9.79691 6.78175C9.79691 4.97463 11.2588 3.50256 13.0761 3.50256C14.0203 3.50256 14.873 3.8985 15.472 4.53809C16.2131 4.39597 16.9238 4.12184 17.5533 3.74622C17.3096 4.50766 16.7918 5.14725 16.1116 5.55331C16.7715 5.48228 17.4111 5.2995 17.9999 5.04572C17.5533 5.69544 16.9949 6.27409 16.3553 6.74113Z" 
      fill="#ECEDEE"
    />
  </svg>
