  <svg 
    xmlns="http://www.w3.org/2000/svg"
    width="20" 
    height="20" 
    viewBox="0 0 20 20" 
    fill="none" 
    >
    <path 
      d="M18.1766 5.87759C17.9803 5.13853 17.402 4.55647 16.6677 4.35894C15.3368 4 9.9999 4 9.9999 4C9.9999 4 4.66302 4 3.33205 4.35894C2.59777 4.5565 2.01946 5.13853 1.82318 5.87759C1.46655 7.21719 1.46655 10.0121 1.46655 10.0121C1.46655 10.0121 1.46655 12.8071 1.82318 14.1467C2.01946 14.8857 2.59777 15.4435 3.33205 15.6411C4.66302 16 9.9999 16 9.9999 16C9.9999 16 15.3368 16 16.6677 15.6411C17.402 15.4435 17.9803 14.8857 18.1766 14.1467C18.5332 12.8071 18.5332 10.0121 18.5332 10.0121C18.5332 10.0121 18.5332 7.21719 18.1766 5.87759ZM8.25443 12.5497V7.47453L12.715 10.0122L8.25443 12.5497Z" 
      fill="currentColor"
    />
  </svg>
